<?xml version="1.0" encoding="UTF-8"?>
<svg version="1.1" xmlns="http://www.w3.org/2000/svg" width="232" height="224">
<path d="M0 0 C76.56 0 153.12 0 232 0 C232 73.92 232 147.84 232 224 C155.44 224 78.88 224 0 224 C0 150.08 0 76.16 0 0 Z " fill="#F9F9F9" transform="translate(0,0)"/>
<path d="M0 0 C0.91330078 -0.0004985 1.82660156 -0.00099701 2.76757812 -0.00151062 C4.69403261 0.00082461 6.62049044 0.0105206 8.546875 0.02709961 C11.48986189 0.05069995 14.43194243 0.04765521 17.375 0.04101562 C19.25000538 0.04659266 21.12500696 0.0537027 23 0.0625 C23.87720703 0.06158859 24.75441406 0.06067719 25.65820312 0.05973816 C31.82580899 0.13105412 35.67154575 0.69382302 40.375 4.98828125 C44.23476969 9.7440689 46.3007607 15.42561264 48.64453125 21.01953125 C50.4699391 25.35597364 52.47056217 29.587222 54.5625 33.80078125 C54.86655762 34.425896 55.17061523 35.05101074 55.48388672 35.69506836 C56.44305639 37.61264926 57.46562565 39.4853031 58.5 41.36328125 C58.86311279 42.1018335 59.22622559 42.84038574 59.6003418 43.60131836 C63.86616346 51.26042561 70.37149215 53.78504264 78.1875 57.05078125 C80.63272674 58.10860409 83.07177448 59.17998687 85.51171875 60.25 C86.68790771 60.76361084 87.86409668 61.27722168 89.07592773 61.80639648 C105.27090879 69.17006096 105.27090879 69.17006096 109.59790039 77.46899414 C110.86353892 81.52965578 110.8444653 85.37780239 110.87109375 89.609375 C110.88012222 90.49810806 110.8891507 91.38684113 110.89845276 92.30250549 C110.91292608 94.17762904 110.92183473 96.05280276 110.92553711 97.92797852 C110.93744736 100.78813982 110.98667145 103.64615201 111.03710938 106.50585938 C111.04657301 108.33202077 111.05380833 110.15819535 111.05859375 111.984375 C111.07812607 112.83454697 111.09765839 113.68471893 111.11778259 114.56065369 C111.08627485 118.7300393 110.83238379 121.5005719 108.17919922 124.82104492 C105.12074883 127.72314479 101.98071737 129.51021364 98.1875 131.23828125 C96.75766055 131.92155712 95.32797748 132.60516031 93.8984375 133.2890625 C92.80547363 133.80267334 92.80547363 133.80267334 91.69042969 134.32666016 C88.20577419 135.97577376 84.75993815 137.70057858 81.3125 139.42578125 C80.42534302 139.86349854 80.42534302 139.86349854 79.52026367 140.31005859 C78.26439421 140.93401959 77.0179118 141.5771004 75.77954102 142.23510742 C73.5 143.36328125 73.5 143.36328125 70.43725586 144.5324707 C59.02781784 149.45066075 56.02094382 157.46452871 51.4375 168.42578125 C50.36198344 170.88876491 49.27504606 173.34641521 48.18519592 175.80308533 C47.51629364 177.3219972 46.85773953 178.84552587 46.21165466 180.37428284 C43.15689761 187.52413473 40.1728476 193.08448137 32.88916016 196.41699219 C25.91859243 198.36324781 18.69290085 198.09698841 11.50317383 198.01513672 C8.67590372 197.98817065 5.85254473 198.01505146 3.02539062 198.046875 C1.21874129 198.04357358 -0.58790563 198.03717288 -2.39453125 198.02734375 C-3.23417923 198.0374649 -4.07382721 198.04758606 -4.93891907 198.05801392 C-9.2142841 197.97252355 -10.97364418 197.77848635 -14.43310547 195.04956055 C-16.04288615 192.95737807 -17.4754347 191.05657241 -18.67578125 188.71875 C-19.02471436 188.0498877 -19.37364746 187.38102539 -19.7331543 186.69189453 C-20.08933838 185.98532715 -20.44552246 185.27875977 -20.8125 184.55078125 C-21.19639893 183.80812012 -21.58029785 183.06545898 -21.97583008 182.30029297 C-24.90243094 176.61545948 -27.77083191 170.89824245 -30.58520508 165.15698242 C-31.19339934 163.92251559 -31.81503154 162.69459742 -32.44848633 161.47290039 C-33.23485503 159.89523336 -33.95326723 158.28337281 -34.63549805 156.65795898 C-38.54014559 148.16036997 -43.44240969 145.54910791 -51.9375 142.17578125 C-54.27468025 141.17215995 -56.61062608 140.16565902 -58.9453125 139.15625 C-60.07098633 138.68106934 -61.19666016 138.20588867 -62.35644531 137.71630859 C-66.42989563 135.96304192 -70.38863615 134.05204885 -74.3125 131.98828125 C-75.41207031 131.42367187 -76.51164062 130.8590625 -77.64453125 130.27734375 C-82.50212929 127.02122468 -85.78944199 123.02797568 -87.5 117.36328125 C-87.84351779 113.99179338 -87.89946073 110.62935607 -87.94140625 107.2421875 C-87.95517807 106.26467026 -87.96894989 105.28715302 -87.98313904 104.28001404 C-88.00636718 102.21659977 -88.02365487 100.15311119 -88.03540039 98.08959961 C-88.06238504 94.93920307 -88.13734461 91.79213328 -88.21289062 88.64257812 C-88.2295441 86.63413709 -88.24331184 84.62566963 -88.25390625 82.6171875 C-88.28376114 81.67952042 -88.31361603 80.74185333 -88.34437561 79.77577209 C-88.30152254 73.38148977 -88.30152254 73.38148977 -85.99084473 70.44613647 C-82.59518308 67.46643502 -79.12360871 65.44304562 -74.875 63.86328125 C-69.49974484 61.76513333 -64.27153031 59.49253196 -59.0703125 56.9921875 C-56.43989797 55.79209684 -53.88654047 54.75193977 -51.1796875 53.765625 C-43.38848152 50.7838159 -37.73656222 48.10764174 -34.125 40.30078125 C-33.20955802 38.17275298 -32.34784404 36.0319521 -31.51025391 33.87207031 C-29.49783452 28.87457838 -27.12403387 24.03996919 -24.8125 19.17578125 C-24.13405029 17.68776001 -24.13405029 17.68776001 -23.44189453 16.16967773 C-18.19983714 4.92747784 -12.44503528 -0.13065973 0 0 Z " fill="#F7E183" transform="translate(91.5,11.63671875)"/>
<path d="M0 0 C0.90105469 0.00902344 1.80210938 0.01804688 2.73046875 0.02734375 C3.41753906 0.03894531 4.10460937 0.05054688 4.8125 0.0625 C8.65967206 6.90191699 10.8095857 14.11989001 13.05908203 21.59667969 C14.80691006 27.31705009 16.6610011 33.00472387 18.48950195 38.69970703 C18.77656006 39.59802246 19.06361816 40.49633789 19.359375 41.421875 C19.61557617 42.22077148 19.87177734 43.01966797 20.13574219 43.84277344 C20.76418489 45.90402924 21.31109729 47.96713929 21.8125 50.0625 C22.781875 50.29324219 23.75125 50.52398437 24.75 50.76171875 C60.76077085 59.45710201 60.76077085 59.45710201 68.6484375 68.06640625 C70.90168934 71.93020388 70.05158897 75.91808024 69.171875 80.12890625 C67.8125 83.0625 67.8125 83.0625 65.15234375 84.56640625 C64.02957031 84.91574219 62.90679687 85.26507813 61.75 85.625 C60.82658813 85.92277344 60.82658813 85.92277344 59.88452148 86.2265625 C57.8681297 86.86721452 55.84305955 87.46838743 53.8125 88.0625 C53.12575195 88.2672998 52.43900391 88.47209961 51.73144531 88.68310547 C48.90291144 89.52613755 46.07270409 90.36215493 43.23583984 91.17675781 C36.98549298 92.97478328 30.8395272 95.02561364 24.69140625 97.14453125 C21.8125 98.0625 21.8125 98.0625 19.8125 98.0625 C19.59335938 99.08085937 19.37421875 100.09921875 19.1484375 101.1484375 C11.53442931 135.54289198 11.53442931 135.54289198 2.0234375 144.8046875 C-0.92560702 146.48241247 -3.06982783 146.3598154 -6.4375 146.25 C-8.05398437 146.20939453 -8.05398437 146.20939453 -9.703125 146.16796875 C-10.52296875 146.13316406 -11.3428125 146.09835938 -12.1875 146.0625 C-12.38384033 145.46300537 -12.58018066 144.86351074 -12.7824707 144.24584961 C-13.68506651 141.49615502 -14.59249513 138.74807813 -15.5 136 C-15.80873047 135.05705078 -16.11746094 134.11410156 -16.43554688 133.14257812 C-17.76139973 129.13710687 -19.0797598 125.17258094 -20.7890625 121.3125 C-22.2335518 117.95547459 -23.27215295 114.6444576 -24.25 111.125 C-24.58644531 109.91714844 -24.92289062 108.70929688 -25.26953125 107.46484375 C-26.29224591 103.67427153 -27.27127284 99.88011316 -28.1875 96.0625 C-29.19103516 95.93294922 -29.19103516 95.93294922 -30.21484375 95.80078125 C-44.48395604 93.71308563 -60.17575399 89.78149266 -72.4375 82 C-75.23026474 77.3121449 -74.73797875 72.38641596 -74.1875 67.0625 C-73.8575 66.4025 -73.5275 65.7425 -73.1875 65.0625 C-74.34507813 65.54460937 -75.50265625 66.02671875 -76.6953125 66.5234375 C-78.23433006 67.16156673 -79.77339508 67.79958151 -81.3125 68.4375 C-82.07304688 68.75460938 -82.83359375 69.07171875 -83.6171875 69.3984375 C-87.7652227 71.11486586 -91.90331771 72.70743915 -96.1875 74.0625 C-89.7115095 66.77701069 -81.08044992 64.16227235 -72.0625 61.125 C-70.00633392 60.4223913 -67.95034354 59.71926822 -65.89453125 59.015625 C-64.9092041 58.67982422 -63.92387695 58.34402344 -62.90869141 57.99804688 C-59.50763046 56.82876054 -56.12898499 55.60655624 -52.75 54.375 C-47.71611499 52.57236639 -42.65609567 50.87468633 -37.5625 49.25 C-36.88646729 49.03061768 -36.21043457 48.81123535 -35.51391602 48.58520508 C-32.19723085 47.54488228 -29.70869673 47.0625 -26.1875 47.0625 C-26.07535156 46.07636719 -26.07535156 46.07636719 -25.9609375 45.0703125 C-24.02763776 31.08232028 -19.28442724 10.69135126 -8.1875 1.0625 C-5.17259443 0.05753148 -3.14568308 -0.04085303 0 0 Z " fill="#F9F9F8" transform="translate(106.1875,36.9375)"/>
<path d="M0 0 C1.32 0 2.64 0 4 0 C4.33 6.6 4.66 13.2 5 20 C3.35 20 1.7 20 0 20 C0 13.4 0 6.8 0 0 Z " fill="#F4F3F1" transform="translate(0,112)"/>
<path d="M0 0 C-0.33 0.99 -0.66 1.98 -1 3 C-1.83015625 3.09023437 -2.6603125 3.18046875 -3.515625 3.2734375 C-7.65699871 4.13699749 -10.99292577 5.73539096 -14.75 7.625 C-17.14973577 8.83177692 -19.52681583 9.94090917 -22 11 C-22.66 10.67 -23.32 10.34 -24 10 C-6.91408935 -3.45704467 -6.91408935 -3.45704467 0 0 Z " fill="#F7F2D6" transform="translate(34,100)"/>
<path d="M0 0 C-0.33 0.99 -0.66 1.98 -1 3 C-5.455 3.495 -5.455 3.495 -10 4 C-7.6604297 0.49064455 -4.21379901 -2.1068995 0 0 Z " fill="#F4F1E7" transform="translate(34,100)"/>
</svg>
